<svg width="184" height="30" viewBox="0 0 184 30" fill="none" xmlns="http://www.w3.org/2000/svg">
<path d="M10.6246 10.4916C10.6246 10.8948 12.4638 11.6829 13.5888 11.6829C15.7494 11.6829 18.0886 8.78723 18.0886 5.70832C18.0886 2.77601 15.9815 0.705078 13.0531 0.705078C7.17829 0.705078 0 9.09879 0 15.8431C0 20.3698 3.24987 24.1818 7.10687 24.1818C11.1781 24.1818 15.7851 19.93 18.8743 13.5705C18.9457 13.4239 18.9993 13.204 18.9993 13.0574C18.9993 12.7458 18.8028 12.5076 18.5171 12.5076C18.2314 12.5076 17.9993 12.7642 17.4458 13.7721C14.6959 18.812 10.571 22.1292 6.85688 22.1292C4.37483 22.1292 2.9106 20.6814 2.9106 18.2073C2.9106 12.416 11.071 2.92263 16.1779 2.92263C16.1779 6.33143 13.2138 10.3084 11.0531 10.3084C10.7317 10.3084 10.6246 10.4 10.6246 10.4916Z" fill="#9B8869"/>
<path d="M28.1621 12.3426C28.1621 11.5546 25.6265 10.3633 25.0551 10.3633C24.0194 10.3633 21.1445 14.0654 19.2875 17.3276C21.0374 12.4893 24.1444 5.50672 24.9301 5.50672C25.0373 5.50672 25.1265 5.39676 25.1265 5.26847C25.1265 4.68201 23.0909 3.67403 22.0195 3.67403C20.4839 3.67403 15.1448 18.6838 15.1448 20.4615C15.1448 21.5977 17.4304 22.679 18.0911 22.679C18.2875 22.679 18.4125 22.5874 18.4125 22.2941C18.4125 21.0113 20.9124 16.6311 23.2873 13.5705C22.3766 15.6232 21.4124 18.8853 21.4124 20.6814C21.4124 21.6161 23.198 22.679 25.0551 22.679C25.6801 22.679 31.6441 13.6622 31.6977 12.8558C31.7156 12.6725 31.5013 12.5076 31.2692 12.5076C30.9656 12.5076 30.6442 12.7642 30.412 13.149C30.0013 13.8455 25.1801 20.9929 24.9301 20.9929C24.8944 20.9929 24.8765 20.883 24.8765 20.6997C24.8765 18.6104 27.2336 12.6909 27.93 12.6909C28.0371 12.6909 28.1621 12.5259 28.1621 12.3426Z" fill="#9B8869"/>
<path d="M31.7228 19.7467C31.7228 17.7124 32.8656 14.9817 34.2406 13.5156C34.3656 14.5052 35.187 15.3483 36.2941 15.7148C35.6691 18.2806 33.8299 21.1212 32.4728 21.1212C32.0621 21.1212 31.7228 20.8647 31.7228 19.7467ZM36.4905 14.1204C36.4905 14.2853 36.4905 14.4502 36.4726 14.6335C35.9191 14.3953 35.5798 13.9921 35.5798 13.4972C35.5798 13.1124 35.7762 12.8741 36.0084 12.8741C36.2762 12.8741 36.4905 13.2773 36.4905 14.1204ZM37.4547 15.9164C39.5797 15.9164 41.9367 14.2853 41.9367 12.8008C41.9367 12.3976 41.776 12.1777 41.526 12.1777C41.3296 12.1777 41.1332 12.306 40.9367 12.7458C40.3832 13.9737 39.044 14.8351 37.5976 14.8351C37.6154 14.6518 37.6154 14.4686 37.6154 14.2853C37.6154 13.8455 37.5797 13.4423 37.5083 13.1124C37.544 13.1307 37.5976 13.149 37.6512 13.149C37.8297 13.149 38.0797 12.9291 38.0797 12.5626C38.0797 11.463 35.8298 10.1801 33.9549 10.1801C31.6157 10.1801 28.2587 15.055 28.2587 18.4638C28.2587 20.7913 29.8122 22.679 31.6692 22.679C34.1334 22.679 36.7762 19.3252 37.4547 15.9164Z" fill="#9B8869"/>
<path d="M47.7805 10.3817C46.352 10.3817 43.9235 14.2303 42.1914 17.4925C43.0664 14.8718 44.2449 12.1227 44.6021 12.1227C44.6735 12.1227 44.7449 12.0311 44.7449 11.9395C44.7449 11.3896 42.5486 10.3817 41.4236 10.3817C40.5308 10.3817 35.656 25.6846 35.656 26.9492C35.656 27.7922 37.8702 29.295 38.9237 29.295C39.2273 29.295 39.4415 29.1484 39.4415 28.8735C39.4415 28.7086 39.388 28.6352 39.263 28.6352C39.138 28.6352 39.0666 28.507 39.0666 28.2504C39.0666 27.2974 40.0665 24.3284 41.4772 21.3595C41.87 21.9093 43.62 22.679 44.7092 22.679C47.5127 22.679 50.6733 17.5108 50.6733 12.6542C50.6733 11.9211 48.6733 10.3817 47.7805 10.3817ZM41.6736 20.938C42.7271 18.8487 46.477 12.251 47.4591 11.5179C47.4591 16.3013 44.6021 20.773 41.6736 20.938Z" fill="#9B8869"/>
<path d="M60.4753 10.3817C59.0468 10.3817 56.6183 14.2303 54.8863 17.4925C55.7612 14.8718 56.9397 12.1227 57.2969 12.1227C57.3683 12.1227 57.4397 12.0311 57.4397 11.9395C57.4397 11.3896 55.2434 10.3817 54.1184 10.3817C53.2256 10.3817 48.3508 25.6846 48.3508 26.9492C48.3508 27.7922 50.565 29.295 51.6185 29.295C51.9221 29.295 52.1364 29.1484 52.1364 28.8735C52.1364 28.7086 52.0828 28.6352 51.9578 28.6352C51.8328 28.6352 51.7614 28.507 51.7614 28.2504C51.7614 27.2974 52.7613 24.3284 54.172 21.3595C54.5648 21.9093 56.3148 22.679 57.404 22.679C60.2075 22.679 63.3681 17.5108 63.3681 12.6542C63.3681 11.9211 61.3681 10.3817 60.4753 10.3817ZM54.3684 20.938C55.422 18.8487 59.1718 12.251 60.1539 11.5179C60.1539 16.3013 57.2969 20.773 54.3684 20.938Z" fill="#9B8869"/>
<path d="M73.5451 13.2407C73.5451 11.7562 71.7238 10.3633 70.1345 10.3633C67.2775 10.3633 63.7419 14.8534 63.7419 18.1523C63.7419 20.6997 65.8311 22.679 67.8132 22.679C71.9738 22.679 76.795 14.047 76.9914 13.6439C77.045 13.5339 77.0986 13.3506 77.0986 13.1857C77.0986 12.8191 76.8664 12.5076 76.5807 12.5076C76.3843 12.5076 76.1879 12.6909 75.9915 13.0574C75.4736 14.0654 71.0274 21.1212 68.3489 21.1212C67.5454 21.1212 67.0454 20.4798 67.0454 19.4168C67.0454 16.8877 69.831 13.4056 71.7773 13.1857C71.4559 15.4399 69.1703 16.9977 68.0096 16.9977C67.7775 16.9977 67.6525 17.0527 67.6525 17.126C67.6525 17.3642 68.706 17.8957 69.4203 17.8957C70.8131 17.8957 73.5451 15.7698 73.5451 13.2407Z" fill="#9B8869"/>
<path d="M84.5221 16.2096C84.4864 16.2096 84.4685 16.1546 84.4685 16.008C84.4685 14.9634 85.3435 12.8375 85.9685 12.8375C86.1649 12.8375 86.3435 12.6176 86.3435 12.3976C86.3435 11.5729 83.8078 10.3817 83.2007 10.3817C82.1829 10.3817 79.4152 13.9554 77.5402 17.1626C78.4509 14.6518 79.6294 12.1411 79.9866 12.1411C80.0401 12.1411 80.1116 12.0494 80.1116 11.9395C80.1116 11.2614 77.7545 10.3817 76.9331 10.3817C76.0224 10.3817 73.0225 18.9953 73.0225 20.3332C73.0225 21.5794 75.5939 22.679 76.2546 22.679C76.451 22.679 76.576 22.5874 76.576 22.2941C76.576 21.0479 78.933 16.8694 81.2722 13.8271C81.0758 14.3769 80.9687 14.9634 80.9687 15.4949C80.9687 16.2646 83.2007 17.4925 84.6114 17.4925C85.2899 17.4925 89.3791 13.2773 89.3433 12.5809C89.3255 12.4526 89.1291 12.251 88.9148 12.251C88.6469 12.251 88.3434 12.5076 88.1291 12.7642C87.647 13.369 84.7721 16.2096 84.5221 16.2096Z" fill="#9B8869"/>
<path d="M102.663 8.56687C102.788 8.56687 102.967 8.40715 102.967 8.10545C102.967 7.21812 101.373 5.81613 100.048 5.81613C98.5434 5.81613 92.3818 20.0667 92.3818 22.6223C92.3818 23.8823 93.8506 25.3907 94.7999 25.3907C95.1223 25.3907 95.3372 25.2133 95.3372 24.6276C95.3372 24.3792 95.373 24.0775 95.4447 23.7225C96.9851 24.8051 98.6508 25.4085 100.263 25.4085C105.153 25.4085 109.935 21.2913 109.935 17.0498C109.935 14.9024 108.699 13.4117 106.621 12.7551C110.114 11.5306 112.174 9.43645 112.174 6.77445C112.174 3.15412 108.377 0.705078 102.824 0.705078C95.4626 0.705078 89.6414 5.05302 89.6414 9.89787C89.6414 12.2227 90.9847 13.9619 93.0087 13.9619C93.761 13.9619 94.1192 13.7312 94.1192 13.5004C94.1192 13.3052 93.8506 13.1278 93.3849 13.1278C92.1848 13.1278 91.3251 11.9742 91.3251 10.519C91.3251 6.88093 96.7522 3.68652 102.806 3.68652C106.89 3.68652 109.487 5.14175 109.487 7.36009C109.487 10.0576 105.672 12.0452 100.03 12.4711C101.194 10.2173 102.251 8.56687 102.663 8.56687ZM98.8837 14.7605C100.729 14.0861 102.412 13.7667 103.827 13.7667C106.245 13.7667 107.804 14.725 107.804 16.4109C107.804 19.4456 102.824 22.8707 98.5613 22.8707C97.5582 22.8707 96.6268 22.6755 95.8029 22.3028C96.4477 20.2087 97.6478 17.3337 98.8837 14.7605Z" fill="#9B8869"/>
<path d="M114.355 22.8885C115 22.8885 121 14.3345 121.054 13.5537C121.072 13.3762 120.857 13.2165 120.624 13.2165C120.32 13.2165 119.997 13.465 119.782 13.8199C119.353 14.512 114.516 21.2558 114.266 21.2558C114.23 21.2558 114.212 21.1493 114.212 21.0605C114.212 20.191 116.415 13.0923 117.096 13.0923C117.167 13.0923 117.275 12.9858 117.275 12.8261C117.275 12.1162 115.34 10.9627 114.319 10.9627C113.495 10.9627 110.522 19.4278 110.522 20.7589C110.522 21.8591 112.492 22.8885 114.355 22.8885ZM117.543 10.519C118.152 10.519 118.188 10.377 118.188 10.1641C118.188 9.01053 119.353 6.4905 119.997 6.4905C120.141 6.4905 120.266 6.34853 120.266 6.2243C120.266 5.67415 118.349 4.48513 117.669 4.48513C116.684 4.48513 115.072 7.04065 115.072 8.51363C115.072 9.66716 116.093 10.519 117.543 10.519Z" fill="#9B8869"/>
<path d="M126.563 21.2558C125.703 21.2558 125.005 19.8893 125.005 18.718C127.082 18.718 129.787 14.441 129.787 12.7906C129.787 12.2759 127.602 10.9627 126.903 10.9627C125.757 10.9627 122.909 14.441 121.028 17.5644C122.819 12.8793 125.954 6.18881 126.724 6.18881C126.832 6.18881 126.975 6.04683 126.975 5.92261C126.975 5.46119 124.915 4.48513 123.858 4.48513C122.497 4.48513 116.819 19.0197 116.819 20.7411C116.819 21.8237 119.112 22.8885 119.757 22.8885C119.954 22.8885 120.079 22.7997 120.079 22.5158C120.079 21.8414 120.778 20.3329 121.799 18.6115C122.175 20.8298 124.414 22.8885 126.653 22.8885C127.297 22.8885 133.28 14.2281 133.351 13.4472C133.351 13.2697 133.154 13.11 132.922 13.11C132.617 13.11 132.277 13.3585 132.062 13.7312C131.632 14.4055 126.814 21.2558 126.563 21.2558ZM122.622 17.316C123.679 15.6655 124.951 13.9796 126.079 12.7728C126.097 12.7728 126.097 12.8261 126.097 12.9148C126.097 14.1038 124.091 17.4402 122.999 17.4402C122.873 17.4402 122.73 17.387 122.622 17.316Z" fill="#9B8869"/>
<path d="M139.594 13.7489C139.594 12.3114 137.767 10.9627 136.173 10.9627C133.307 10.9627 129.761 15.3106 129.761 18.505C129.761 20.9718 131.857 22.8885 133.845 22.8885C138.018 22.8885 142.854 14.5298 143.051 14.1393C143.105 14.0329 143.159 13.8554 143.159 13.6957C143.159 13.3407 142.926 13.039 142.639 13.039C142.442 13.039 142.245 13.2165 142.048 13.5714C141.529 14.5475 137.069 21.38 134.382 21.38C133.576 21.38 133.075 20.7589 133.075 19.7295C133.075 17.2805 135.869 13.9086 137.821 13.6957C137.499 15.8785 135.206 17.387 134.042 17.387C133.809 17.387 133.684 17.4402 133.684 17.5112C133.684 17.7419 134.74 18.2566 135.457 18.2566C136.854 18.2566 139.594 16.1979 139.594 13.7489Z" fill="#9B8869"/>
<path d="M145.124 18.8245C147.972 17.1918 151.357 15.0444 152.325 14.3345C152.54 14.1748 152.737 13.9086 152.737 13.6424C152.737 13.3585 152.504 13.181 152.289 13.181C152.11 13.181 151.841 13.3052 151.411 13.6424C150.336 14.4233 147.184 16.3932 144.533 17.8661C144.175 17.2628 143.906 16.7304 143.906 16.3754C143.906 15.2574 146.683 12.8261 147.829 12.8261C148.187 12.8261 148.581 13.0745 148.581 13.3762C148.581 13.5537 148.707 13.6779 148.85 13.6779C149.047 13.6779 149.28 13.4827 149.28 12.9503C149.28 11.4063 147.256 10.1286 146.038 10.1286C144.103 10.1286 140.611 13.3585 140.611 15.1864C140.611 16.056 141.434 17.5644 142.617 18.8777C142.33 19.0197 142.043 19.1616 141.811 19.2681C139.303 20.3862 138.443 21.6107 138.443 22.6755C138.443 24.2904 140.414 25.5505 141.596 25.5505C143.064 25.5505 146.378 23.5451 146.378 21.7527C146.378 20.9718 145.751 19.8715 145.124 18.8245ZM140.002 23.2256C139.643 23.2256 139.393 23.0659 139.393 22.7642C139.393 22.2673 140.109 21.3977 142.294 20.3507C142.581 20.2087 142.903 20.049 143.244 19.8715C143.405 20.1732 143.494 20.4394 143.494 20.6701C143.494 21.8059 141.04 23.2256 140.002 23.2256Z" fill="#9B8869"/>
<path d="M161.17 12.8793C161.17 12.1162 158.626 10.9627 158.053 10.9627C157.014 10.9627 154.13 14.5475 152.268 17.7064C154.023 13.0213 157.139 6.2598 157.928 6.2598C158.035 6.2598 158.125 6.15332 158.125 6.02909C158.125 5.46119 156.083 4.48513 155.008 4.48513C153.468 4.48513 148.112 19.0197 148.112 20.7411C148.112 21.8414 150.405 22.8885 151.067 22.8885C151.264 22.8885 151.39 22.7997 151.39 22.5158C151.39 21.2735 153.897 17.032 156.28 14.0683C155.366 16.056 154.399 19.2149 154.399 20.9541C154.399 21.8591 156.19 22.8885 158.053 22.8885C158.68 22.8885 164.662 14.1571 164.716 13.3762C164.734 13.1988 164.519 13.039 164.286 13.039C163.982 13.039 163.659 13.2875 163.426 13.6602C163.014 14.3345 158.178 21.2558 157.928 21.2558C157.892 21.2558 157.874 21.1493 157.874 20.9718C157.874 18.9487 160.238 13.2165 160.937 13.2165C161.044 13.2165 161.17 13.0568 161.17 12.8793Z" fill="#9B8869"/>
<path d="M164.741 20.049C164.741 18.0791 165.887 15.4348 167.267 14.0151C167.392 14.9734 168.216 15.7898 169.326 16.1447C168.7 18.6292 166.855 21.38 165.493 21.38C165.081 21.38 164.741 21.1315 164.741 20.049ZM169.524 14.6007C169.524 14.7605 169.524 14.9202 169.506 15.0977C168.95 14.8669 168.61 14.4765 168.61 13.9974C168.61 13.6247 168.807 13.394 169.04 13.394C169.309 13.394 169.524 13.7844 169.524 14.6007ZM170.491 16.3399C172.622 16.3399 174.986 14.7605 174.986 13.323C174.986 12.9326 174.825 12.7196 174.575 12.7196C174.378 12.7196 174.18 12.8438 173.983 13.2697C173.428 14.4588 172.085 15.2929 170.634 15.2929C170.652 15.1154 170.652 14.9379 170.652 14.7605C170.652 14.3345 170.616 13.9441 170.544 13.6247C170.58 13.6424 170.634 13.6602 170.688 13.6602C170.867 13.6602 171.118 13.4472 171.118 13.0923C171.118 12.0275 168.861 10.7852 166.98 10.7852C164.634 10.7852 161.266 15.5058 161.266 18.8067C161.266 21.0605 162.825 22.8885 164.687 22.8885C167.159 22.8885 169.81 19.6408 170.491 16.3399Z" fill="#9B8869"/>
<path d="M180.848 10.9804C179.415 10.9804 176.979 14.7072 175.242 17.8661C176.12 15.3284 177.302 12.6664 177.66 12.6664C177.732 12.6664 177.803 12.5776 177.803 12.4889C177.803 11.9565 175.6 10.9804 174.472 10.9804C173.576 10.9804 168.686 25.7989 168.686 27.0234C168.686 27.8398 170.907 29.295 171.964 29.295C172.269 29.295 172.484 29.153 172.484 28.8868C172.484 28.7271 172.43 28.6561 172.305 28.6561C172.179 28.6561 172.108 28.5319 172.108 28.2835C172.108 27.3606 173.111 24.4857 174.526 21.6107C174.92 22.1431 176.675 22.8885 177.768 22.8885C180.58 22.8885 183.75 17.8839 183.75 13.181C183.75 12.4711 181.744 10.9804 180.848 10.9804ZM174.723 21.2025C175.779 19.1794 179.541 12.7906 180.526 12.0807C180.526 16.7126 177.66 21.0428 174.723 21.2025Z" fill="#9B8869"/>
</svg>
