<svg width="342" height="67" viewBox="0 0 342 67" fill="none" xmlns="http://www.w3.org/2000/svg">
<path d="M1 32L0.989812 43.547L10.9949 37.7824L1 32ZM328.566 45.9005C329.063 45.6603 329.272 45.0625 329.031 44.5652C328.791 44.0678 328.193 43.8594 327.696 44.0995L328.566 45.9005ZM341 32L341.011 20.453L331.005 26.2172L341 32ZM14.5087 17.5922C14.0073 17.8237 13.7886 18.4179 14.0201 18.9193C14.2517 19.4207 14.8458 19.6395 15.3472 19.4079L14.5087 17.5922ZM171 65C130.807 65 93.8907 62.2071 64.8385 57.5443C50.3114 55.2127 37.7684 52.4164 27.7734 49.2751C17.7505 46.1251 10.391 42.6585 6.14228 39.0381L4.84511 40.5604C9.40899 44.4493 17.0853 48.0125 27.1738 51.1831C37.2901 54.3625 49.9341 57.1777 64.5216 59.519C93.6988 64.2019 130.723 67 171 67V65ZM327.696 44.0995C315.081 50.1921 293.644 55.4261 266.433 59.1321C239.251 62.8341 206.395 65 171 65V67C206.471 67 239.418 64.8298 266.703 61.1138C293.959 57.4016 315.655 52.1357 328.566 45.9005L327.696 44.0995ZM244.904 2.37693C267.623 4.57732 287.495 7.75874 303.145 11.6391C318.847 15.5319 330.144 20.0926 335.859 24.9628L337.156 23.4406C331.056 18.242 319.35 13.5961 303.627 9.69784C287.853 5.78702 267.879 2.59276 245.096 0.386249L244.904 2.37693ZM15.3472 19.4079C17.3156 18.4989 19.4849 17.6083 21.8457 16.7386L21.1543 14.8619C18.7517 15.7469 16.5325 16.6576 14.5087 17.5922L15.3472 19.4079Z" fill="#9B8869"/>
</svg>
